w1r100.ufo
<glyph name="_15" format="2">
	<unicode hex="010F"/>
	<advance width="1"/>
	<outline>
		<component base="cap"/>
		<component base="cap" yOffset="149"/>
		<contour>
			<point x="0" y="1" type="line"/>
			<point x="0" y="150" type="line"/>
			<point x="1" y="150" type="line"/>
			<point x="1" y="1" type="line"/>
		</contour>
	</outline>
</glyph>
<glyph name="_17" format="2">
  <advance width="1"/>
  <unicode hex="0111"/>
  
  <outline>
    <component base="cap" xOffset="0" yOffset="0" />
    <component base="cap" xOffset="0" yOffset="169" />
    <contour>
      <point x="0" y="1" type="line"/>
      <point x="0" y="170" type="line"/>
      <point x="1" y="170" type="line"/>
      <point x="1" y="1" type="line"/>
    </contour>
  </outline>
</glyph>
<glyph name="_32" format="2">
  <advance width="1"/>
  <unicode hex="0120"/>
  <unicode hex="0071"/>
  <outline>
    <component base="cap" xOffset="0" yOffset="0" />
    <component base="cap" xOffset="0" yOffset="319" />
    <contour>
      <point x="0" y="1" type="line"/>
      <point x="0" y="320" type="line"/>
      <point x="1" y="320" type="line"/>
      <point x="1" y="1" type="line"/>
    </contour>
  </outline>
</glyph>
<glyph name="_37" format="2">
	<unicode hex="0125"/>
	<advance width="1"/>
	<outline>
		<component base="cap"/>
		<component base="cap" yOffset="369"/>
		<contour>
			<point x="0" y="1" type="line"/>
			<point x="0" y="370" type="line"/>
			<point x="1" y="370" type="line"/>
			<point x="1" y="1" type="line"/>
		</contour>
	</outline>
</glyph>
<glyph name="_38" format="2">
	<unicode hex="0126"/>
	<unicode hex="0074"/>
	<advance width="1"/>
	<outline>
		<component base="cap"/>
		<component base="cap" yOffset="379"/>
		<contour>
			<point x="0" y="1" type="line"/>
			<point x="0" y="380" type="line"/>
			<point x="1" y="380" type="line"/>
			<point x="1" y="1" type="line"/>
		</contour>
	</outline>
</glyph>
<glyph name="_40" format="2">
  <advance width="1"/>
  <unicode hex="0128"/>
  <unicode hex="0034"/><unicode hex="0075"/>
  <outline>
    <component base="cap" xOffset="0" yOffset="0" />
    <component base="cap" xOffset="0" yOffset="399" />
    <contour>
      <point x="0" y="1" type="line"/>
      <point x="0" y="400" type="line"/>
      <point x="1" y="400" type="line"/>
      <point x="1" y="1" type="line"/>
    </contour>
  </outline>
</glyph>
<glyph name="_40" format="2">
	<unicode hex="0128"/>
	<unicode hex="0034"/>
	<unicode hex="0075"/>
	<advance width="1"/>
	<outline>
		<component base="cap"/>
		<component base="cap" yOffset="399"/>
		<contour>
			<point x="0" y="1" type="line"/>
			<point x="0" y="400" type="line"/>
			<point x="1" y="400" type="line"/>
			<point x="1" y="1" type="line"/>
		</contour>
	</outline>
</glyph>
<glyph name="_51" format="2">
	<unicode hex="0133"/>
	<advance width="1"/>
	<outline>
		<component base="cap"/>
		<component base="cap" yOffset="509"/>
		<contour>
			<point x="0" y="1" type="line"/>
			<point x="0" y="510" type="line"/>
			<point x="1" y="510" type="line"/>
			<point x="1" y="1" type="line"/>
		</contour>
	</outline>
</glyph>
<glyph name="_52" format="2">
	<unicode hex="0134"/>
	<unicode hex="0041"/>
	<advance width="1"/>
	<outline>
		<component base="cap"/>
		<component base="cap" yOffset="519"/>
		<contour>
			<point x="0" y="1" type="line"/>
			<point x="0" y="520" type="line"/>
			<point x="1" y="520" type="line"/>
			<point x="1" y="1" type="line"/>
		</contour>
	</outline>
</glyph>
<glyph name="_59" format="2">
  <advance width="1"/>
  <unicode hex="013B"/>
  
  <outline>
    <component base="cap" xOffset="0" yOffset="0" />
    <component base="cap" xOffset="0" yOffset="589" />
    <contour>
      <point x="0" y="1" type="line"/>
      <point x="0" y="590" type="line"/>
      <point x="1" y="590" type="line"/>
      <point x="1" y="1" type="line"/>
    </contour>
  </outline>
</glyph>
<glyph name="_60" format="2">
	<unicode hex="013C"/>
	<unicode hex="0036"/>
	<unicode hex="0045"/>
	<advance width="1"/>
	<outline>
		<component base="cap"/>
		<component base="cap" yOffset="599"/>
		<contour>
			<point x="0" y="1" type="line"/>
			<point x="0" y="600" type="line"/>
			<point x="1" y="600" type="line"/>
			<point x="1" y="1" type="line"/>
		</contour>
	</outline>
</glyph>
<glyph name="_86" format="2">
  <advance width="1"/>
  <unicode hex="0156"/>
  <unicode hex="2587"/><unicode hex="0052"/>
  <outline>
    <component base="cap" xOffset="0" yOffset="0" />
    <component base="cap" xOffset="0" yOffset="859" />
    <contour>
      <point x="0" y="1" type="line"/>
      <point x="0" y="860" type="line"/>
      <point x="1" y="860" type="line"/>
      <point x="1" y="1" type="line"/>
    </contour>
  </outline>
</glyph>
<glyph name="_87" format="2">
	<unicode hex="0157"/>
	<advance width="1"/>
	<outline>
		<component base="cap"/>
		<component base="cap" yOffset="869"/>
		<contour>
			<point x="0" y="1" type="line"/>
			<point x="0" y="870" type="line"/>
			<point x="1" y="870" type="line"/>
			<point x="1" y="1" type="line"/>
		</contour>
	</outline>
</glyph>
<glyph name="_88" format="2">
	<unicode hex="0158"/>
	<unicode hex="0053"/>
	<advance width="1"/>
	<outline>
		<component base="cap"/>
		<component base="cap" yOffset="879"/>
		<contour>
			<point x="0" y="1" type="line"/>
			<point x="0" y="880" type="line"/>
			<point x="1" y="880" type="line"/>
			<point x="1" y="1" type="line"/>
		</contour>
	</outline>
</glyph>
<glyph name="_100" format="2">
	<unicode hex="0164"/>
	<unicode hex="007C"/>
	<unicode hex="2588"/>
	<unicode hex="005A"/>
	<advance width="1"/>
	<outline>
		<component base="cap"/>
		<component base="cap" yOffset="999"/>
		<contour>
			<point x="0" y="1" type="line"/>
			<point x="0" y="1000" type="line"/>
			<point x="1" y="1000" type="line"/>
			<point x="1" y="1" type="line"/>
		</contour>
	</outline>
</glyph>
<glyph name="_9.center" format="2">
	<unicode hex="0409"/>
	<advance width="1"/>
	<outline>
		<component base="cap" yOffset="455"/>
		<component base="cap" yOffset="544"/>
		<contour>
			<point x="0" y="456" type="line"/>
			<point x="0" y="545" type="line"/>
			<point x="1" y="545" type="line"/>
			<point x="1" y="456" type="line"/>
		</contour>
	</outline>
</glyph>
<glyph name="_14.center" format="2">
	<unicode hex="040E"/>
	<advance width="1"/>
	<outline>
		<component base="cap" yOffset="430"/>
		<component base="cap" yOffset="569"/>
		<contour>
			<point x="0" y="431" type="line"/>
			<point x="0" y="570" type="line"/>
			<point x="1" y="570" type="line"/>
			<point x="1" y="431" type="line"/>
		</contour>
	</outline>
</glyph>
<glyph name="_19.center" format="2">
	<unicode hex="0413"/>
	<advance width="1"/>
	<outline>
		<component base="cap" yOffset="405"/>
		<component base="cap" yOffset="594"/>
		<contour>
			<point x="0" y="406" type="line"/>
			<point x="0" y="595" type="line"/>
			<point x="1" y="595" type="line"/>
			<point x="1" y="406" type="line"/>
		</contour>
	</outline>
</glyph>
<glyph name="_20.center" format="2">
	<unicode hex="0414"/>
	<advance width="1"/>
	<outline>
		<component base="cap" yOffset="400"/>
		<component base="cap" yOffset="599"/>
		<contour>
			<point x="0" y="401" type="line"/>
			<point x="0" y="600" type="line"/>
			<point x="1" y="600" type="line"/>
			<point x="1" y="401" type="line"/>
		</contour>
	</outline>
</glyph>
<glyph name="_24.center" format="2">
	<unicode hex="0418"/>
	<advance width="1"/>
	<outline>
		<component base="cap" yOffset="380"/>
		<component base="cap" yOffset="619"/>
		<contour>
			<point x="0" y="381" type="line"/>
			<point x="0" y="620" type="line"/>
			<point x="1" y="620" type="line"/>
			<point x="1" y="381" type="line"/>
		</contour>
	</outline>
</glyph>
<glyph name="_25.center" format="2">
	<unicode hex="0419"/>
	<advance width="1"/>
	<outline>
		<component base="cap" yOffset="375"/>
		<component base="cap" yOffset="624"/>
		<contour>
			<point x="0" y="376" type="line"/>
			<point x="0" y="625" type="line"/>
			<point x="1" y="625" type="line"/>
			<point x="1" y="376" type="line"/>
		</contour>
	</outline>
</glyph>
<glyph name="_31.center" format="2">
	<unicode hex="041F"/>
	<advance width="1"/>
	<outline>
		<component base="cap" yOffset="345"/>
		<component base="cap" yOffset="654"/>
		<contour>
			<point x="0" y="346" type="line"/>
			<point x="0" y="655" type="line"/>
			<point x="1" y="655" type="line"/>
			<point x="1" y="346" type="line"/>
		</contour>
	</outline>
</glyph>
<glyph name="_35.center" format="2">
  <advance width="1"/>
  <unicode hex="0423"/>
  
  <outline>
    <component base="cap" xOffset="0" yOffset="325" />
    <component base="cap" xOffset="0" yOffset="674" />
    <contour>
      <point x="0" y="326" type="line"/>
      <point x="0" y="675" type="line"/>
      <point x="1" y="675" type="line"/>
      <point x="1" y="326" type="line"/>
    </contour>
  </outline>
</glyph>
<glyph name="_36.center" format="2">
	<unicode hex="0424"/>
	<advance width="1"/>
	<outline>
		<component base="cap" yOffset="320"/>
		<component base="cap" yOffset="679"/>
		<contour>
			<point x="0" y="321" type="line"/>
			<point x="0" y="680" type="line"/>
			<point x="1" y="680" type="line"/>
			<point x="1" y="321" type="line"/>
		</contour>
	</outline>
</glyph>
<glyph name="_40.center" format="2">
	<unicode hex="0428"/>
	<advance width="1"/>
	<outline>
		<component base="cap" yOffset="300"/>
		<component base="cap" yOffset="699"/>
		<contour>
			<point x="0" y="301" type="line"/>
			<point x="0" y="700" type="line"/>
			<point x="1" y="700" type="line"/>
			<point x="1" y="301" type="line"/>
		</contour>
	</outline>
</glyph>
<glyph name="_42.center" format="2">
	<unicode hex="042A"/>
	<advance width="1"/>
	<outline>
		<component base="cap" yOffset="290"/>
		<component base="cap" yOffset="709"/>
		<contour>
			<point x="0" y="291" type="line"/>
			<point x="0" y="710" type="line"/>
			<point x="1" y="710" type="line"/>
			<point x="1" y="291" type="line"/>
		</contour>
	</outline>
</glyph>
<glyph name="_46.center" format="2">
  <advance width="1"/>
  <unicode hex="042E"/>
  
  <outline>
    <component base="cap" xOffset="0" yOffset="270" />
    <component base="cap" xOffset="0" yOffset="729" />
    <contour>
      <point x="0" y="271" type="line"/>
      <point x="0" y="730" type="line"/>
      <point x="1" y="730" type="line"/>
      <point x="1" y="271" type="line"/>
    </contour>
  </outline>
</glyph>
<glyph name="_54.center" format="2">
	<unicode hex="0436"/>
	<advance width="1"/>
	<outline>
		<component base="cap" yOffset="230"/>
		<component base="cap" yOffset="769"/>
		<contour>
			<point x="0" y="231" type="line"/>
			<point x="0" y="770" type="line"/>
			<point x="1" y="770" type="line"/>
			<point x="1" y="231" type="line"/>
		</contour>
	</outline>
</glyph>
<glyph name="_56.center" format="2">
  <advance width="1"/>
  <unicode hex="0438"/>
  
  <outline>
    <component base="cap" xOffset="0" yOffset="220" />
    <component base="cap" xOffset="0" yOffset="779" />
    <contour>
      <point x="0" y="221" type="line"/>
      <point x="0" y="780" type="line"/>
      <point x="1" y="780" type="line"/>
      <point x="1" y="221" type="line"/>
    </contour>
  </outline>
</glyph>
<glyph name="_57.center" format="2">
	<unicode hex="0439"/>
	<advance width="1"/>
	<outline>
		<component base="cap" yOffset="215"/>
		<component base="cap" yOffset="784"/>
		<contour>
			<point x="0" y="216" type="line"/>
			<point x="0" y="785" type="line"/>
			<point x="1" y="785" type="line"/>
			<point x="1" y="216" type="line"/>
		</contour>
	</outline>
</glyph>
<glyph name="_59.center" format="2">
  <advance width="1"/>
  <unicode hex="043B"/>
  
  <outline>
    <component base="cap" xOffset="0" yOffset="205" />
    <component base="cap" xOffset="0" yOffset="794" />
    <contour>
      <point x="0" y="206" type="line"/>
      <point x="0" y="795" type="line"/>
      <point x="1" y="795" type="line"/>
      <point x="1" y="206" type="line"/>
    </contour>
  </outline>
</glyph>
<glyph name="_66.center" format="2">
  <advance width="1"/>
  <unicode hex="0442"/>
  
  <outline>
    <component base="cap" xOffset="0" yOffset="170" />
    <component base="cap" xOffset="0" yOffset="829" />
    <contour>
      <point x="0" y="171" type="line"/>
      <point x="0" y="830" type="line"/>
      <point x="1" y="830" type="line"/>
      <point x="1" y="171" type="line"/>
    </contour>
  </outline>
</glyph>
<glyph name="_68.center" format="2">
	<unicode hex="0444"/>
	<advance width="1"/>
	<outline>
		<component base="cap" yOffset="160"/>
		<component base="cap" yOffset="839"/>
		<contour>
			<point x="0" y="161" type="line"/>
			<point x="0" y="840" type="line"/>
			<point x="1" y="840" type="line"/>
			<point x="1" y="161" type="line"/>
		</contour>
	</outline>
</glyph>
<glyph name="_74.center" format="2">
  <advance width="1"/>
  <unicode hex="044A"/>
  
  <outline>
    <component base="cap" xOffset="0" yOffset="130" />
    <component base="cap" xOffset="0" yOffset="869" />
    <contour>
      <point x="0" y="131" type="line"/>
      <point x="0" y="870" type="line"/>
      <point x="1" y="870" type="line"/>
      <point x="1" y="131" type="line"/>
    </contour>
  </outline>
</glyph>
<glyph name="_74.center" format="2">
	<unicode hex="044A"/>
	<advance width="1"/>
	<outline>
		<component base="cap" yOffset="130"/>
		<component base="cap" yOffset="869"/>
		<contour>
			<point x="0" y="131" type="line"/>
			<point x="0" y="870" type="line"/>
			<point x="1" y="870" type="line"/>
			<point x="1" y="131" type="line"/>
		</contour>
	</outline>
</glyph>
<glyph name="_78.center" format="2">
	<unicode hex="044E"/>
	<advance width="1"/>
	<outline>
		<component base="cap" yOffset="110"/>
		<component base="cap" yOffset="889"/>
		<contour>
			<point x="0" y="111" type="line"/>
			<point x="0" y="890" type="line"/>
			<point x="1" y="890" type="line"/>
			<point x="1" y="111" type="line"/>
		</contour>
	</outline>
</glyph>
<glyph name="_82.center" format="2">
  <advance width="1"/>
  <unicode hex="0452"/>
  
  <outline>
    <component base="cap" xOffset="0" yOffset="90" />
    <component base="cap" xOffset="0" yOffset="909" />
    <contour>
      <point x="0" y="91" type="line"/>
      <point x="0" y="910" type="line"/>
      <point x="1" y="910" type="line"/>
      <point x="1" y="91" type="line"/>
    </contour>
  </outline>
</glyph>
<glyph name="_83.center" format="2">
	<unicode hex="0453"/>
	<advance width="1"/>
	<outline>
		<component base="cap" yOffset="85"/>
		<component base="cap" yOffset="914"/>
		<contour>
			<point x="0" y="86" type="line"/>
			<point x="0" y="915" type="line"/>
			<point x="1" y="915" type="line"/>
			<point x="1" y="86" type="line"/>
		</contour>
	</outline>
</glyph>
<glyph name="_86.center" format="2">
  <advance width="1"/>
  <unicode hex="0456"/>
  
  <outline>
    <component base="cap" xOffset="0" yOffset="70" />
    <component base="cap" xOffset="0" yOffset="929" />
    <contour>
      <point x="0" y="71" type="line"/>
      <point x="0" y="930" type="line"/>
      <point x="1" y="930" type="line"/>
      <point x="1" y="71" type="line"/>
    </contour>
  </outline>
</glyph>
<glyph name="_88.center" format="2">
	<unicode hex="0458"/>
	<advance width="1"/>
	<outline>
		<component base="cap" yOffset="60"/>
		<component base="cap" yOffset="939"/>
		<contour>
			<point x="0" y="61" type="line"/>
			<point x="0" y="940" type="line"/>
			<point x="1" y="940" type="line"/>
			<point x="1" y="61" type="line"/>
		</contour>
	</outline>
</glyph>
<glyph name="_90.center" format="2">
	<unicode hex="045A"/>
	<advance width="1"/>
	<outline>
		<component base="cap" yOffset="50"/>
		<component base="cap" yOffset="949"/>
		<contour>
			<point x="0" y="51" type="line"/>
			<point x="0" y="950" type="line"/>
			<point x="1" y="950" type="line"/>
			<point x="1" y="51" type="line"/>
		</contour>
	</outline>
</glyph>
<glyph name="_91.center" format="2">
	<unicode hex="045B"/>
	<advance width="1"/>
	<outline>
		<component base="cap" yOffset="45"/>
		<component base="cap" yOffset="954"/>
		<contour>
			<point x="0" y="46" type="line"/>
			<point x="0" y="955" type="line"/>
			<point x="1" y="955" type="line"/>
			<point x="1" y="46" type="line"/>
		</contour>
	</outline>
</glyph>
<glyph name="_95.center" format="2">
	<unicode hex="045F"/>
	<advance width="1"/>
	<outline>
		<component base="cap" yOffset="25"/>
		<component base="cap" yOffset="974"/>
		<contour>
			<point x="0" y="26" type="line"/>
			<point x="0" y="975" type="line"/>
			<point x="1" y="975" type="line"/>
			<point x="1" y="26" type="line"/>
		</contour>
	</outline>
</glyph>
<glyph name="_97.center" format="2">
	<unicode hex="0461"/>
	<advance width="1"/>
	<outline>
		<component base="cap" yOffset="15"/>
		<component base="cap" yOffset="984"/>
		<contour>
			<point x="0" y="16" type="line"/>
			<point x="0" y="985" type="line"/>
			<point x="1" y="985" type="line"/>
			<point x="1" y="16" type="line"/>
		</contour>
	</outline>
</glyph>
<glyph name="_98.center" format="2">
	<unicode hex="0462"/>
	<advance width="1"/>
	<outline>
		<component base="cap" yOffset="10"/>
		<component base="cap" yOffset="989"/>
		<contour>
			<point x="0" y="11" type="line"/>
			<point x="0" y="990" type="line"/>
			<point x="1" y="990" type="line"/>
			<point x="1" y="11" type="line"/>
		</contour>
	</outline>
</glyph>
<glyph name="_99.center" format="2">
	<unicode hex="0463"/>
	<advance width="1"/>
	<outline>
		<component base="cap" yOffset="5"/>
		<component base="cap" yOffset="994"/>
		<contour>
			<point x="0" y="6" type="line"/>
			<point x="0" y="995" type="line"/>
			<point x="1" y="995" type="line"/>
			<point x="1" y="6" type="line"/>
		</contour>
	</outline>
</glyph>
<glyph name="_102.center" format="2">
	<unicode hex="0466"/>
	<advance width="1"/>
	<outline>
		<component base="cap" yOffset="-10"/>
		<component base="cap" yOffset="1009"/>
		<contour>
			<point x="0" y="-10" type="line"/>
			<point x="0" y="1010" type="line"/>
			<point x="1" y="1010" type="line"/>
			<point x="1" y="-10" type="line"/>
		</contour>
	</outline>
</glyph>
<glyph name="_103.center" format="2">
	<unicode hex="0467"/>
	<advance width="1"/>
	<outline>
		<component base="cap" yOffset="-15"/>
		<component base="cap" yOffset="1014"/>
		<contour>
			<point x="0" y="-15" type="line"/>
			<point x="0" y="1015" type="line"/>
			<point x="1" y="1015" type="line"/>
			<point x="1" y="-15" type="line"/>
		</contour>
	</outline>
</glyph>
<glyph name="_105.center" format="2">
	<unicode hex="0469"/>
	<advance width="1"/>
	<outline>
		<component base="cap" yOffset="-25"/>
		<component base="cap" yOffset="1024"/>
		<contour>
			<point x="0" y="-25" type="line"/>
			<point x="0" y="1025" type="line"/>
			<point x="1" y="1025" type="line"/>
			<point x="1" y="-25" type="line"/>
		</contour>
	</outline>
</glyph>
<glyph name="_106.center" format="2">
	<unicode hex="046A"/>
	<advance width="1"/>
	<outline>
		<component base="cap" yOffset="-30"/>
		<component base="cap" yOffset="1029"/>
		<contour>
			<point x="0" y="-30" type="line"/>
			<point x="0" y="1030" type="line"/>
			<point x="1" y="1030" type="line"/>
			<point x="1" y="-30" type="line"/>
		</contour>
	</outline>
</glyph>
<glyph name="_11.clip.center" format="2">
  <advance width="1"/>
  
  <outline>
    <contour>
        <point x="0.000" y="530.250"/>

        <point x="24.750" y="555.000"/>
        <point x="55.000" y="555.000" type="curve" smooth="yes"/>
        <point x="-54.000" y="555.000" type="line"/>
        <point x="-23.750" y="555.000"/>

        <point x="1.000" y="530.250"/>
        <point x="1.000" y="500.000" type="curve" smooth="yes"/>
        <point x="1.000" y="500.000" type="line"/>
        <point x="1.000" y="469.750"/>

        <point x="-23.750" y="445.000"/>
        <point x="-54.000" y="445.000" type="curve" smooth="yes"/>
        <point x="55.000" y="445.000" type="line"/>
        <point x="24.750" y="445.000"/>

        <point x="0.000" y="469.750"/>
        <point x="0.000" y="500.000" type="curve" smooth="yes"/>
        <point x="0.000" y="500.000" type="line"/>
    </contour>
  </outline>
</glyph>
<glyph name="_11.clip" format="2">
  <advance width="1"/>
  
  <outline>
    <contour>
        <point x="0.000" y="85.250"/>

        <point x="24.750" y="110.000"/>
        <point x="55.000" y="110.000" type="curve" smooth="yes"/>
        <point x="-54.000" y="110.000" type="line"/>
        <point x="-23.750" y="110.000"/>

        <point x="1.000" y="85.250"/>
        <point x="1.000" y="55.000" type="curve" smooth="yes"/>
        <point x="1.000" y="55.000" type="line"/>
        <point x="1.000" y="24.750"/>

        <point x="-23.750" y="0.000"/>
        <point x="-54.000" y="0.000" type="curve" smooth="yes"/>
        <point x="55.000" y="0.000" type="line"/>
        <point x="24.750" y="0.000"/>

        <point x="0.000" y="24.750"/>
        <point x="0.000" y="55.000" type="curve" smooth="yes"/>
        <point x="0.000" y="55.000" type="line"/>
    </contour>
  </outline>
</glyph>
<glyph name="_16.clip" format="2">
  <advance width="1"/>
  
  <outline>
    <contour>
        <point x="0.000" y="124.000"/>

        <point x="36.000" y="160.000"/>
        <point x="80.000" y="160.000" type="curve" smooth="yes"/>
        <point x="-79.000" y="160.000" type="line"/>
        <point x="-35.000" y="160.000"/>

        <point x="1.000" y="124.000"/>
        <point x="1.000" y="80.000" type="curve" smooth="yes"/>
        <point x="1.000" y="80.000" type="line"/>
        <point x="1.000" y="36.000"/>

        <point x="-35.000" y="0.000"/>
        <point x="-79.000" y="0.000" type="curve" smooth="yes"/>
        <point x="80.000" y="0.000" type="line"/>
        <point x="36.000" y="0.000"/>

        <point x="0.000" y="36.000"/>
        <point x="0.000" y="80.000" type="curve" smooth="yes"/>
        <point x="0.000" y="80.000" type="line"/>
    </contour>
  </outline>
</glyph>
<glyph name="_19.clip.center" format="2">
  <advance width="1"/>
  
  <outline>
    <contour>
        <point x="0.000" y="552.250"/>

        <point x="42.750" y="595.000"/>
        <point x="95.000" y="595.000" type="curve" smooth="yes"/>
        <point x="-94.000" y="595.000" type="line"/>
        <point x="-41.750" y="595.000"/>

        <point x="1.000" y="552.250"/>
        <point x="1.000" y="500.000" type="curve" smooth="yes"/>
        <point x="1.000" y="500.000" type="line"/>
        <point x="1.000" y="447.750"/>

        <point x="-41.750" y="405.000"/>
        <point x="-94.000" y="405.000" type="curve" smooth="yes"/>
        <point x="95.000" y="405.000" type="line"/>
        <point x="42.750" y="405.000"/>

        <point x="0.000" y="447.750"/>
        <point x="0.000" y="500.000" type="curve" smooth="yes"/>
        <point x="0.000" y="500.000" type="line"/>
    </contour>
  </outline>
</glyph>
<glyph name="_25.clip.center" format="2">
  <advance width="1"/>
  
  <outline>
    <contour>
        <point x="0.000" y="568.750"/>

        <point x="56.250" y="625.000"/>
        <point x="125.000" y="625.000" type="curve" smooth="yes"/>
        <point x="-124.000" y="625.000" type="line"/>
        <point x="-55.250" y="625.000"/>

        <point x="1.000" y="568.750"/>
        <point x="1.000" y="500.000" type="curve" smooth="yes"/>
        <point x="1.000" y="500.000" type="line"/>
        <point x="1.000" y="431.250"/>

        <point x="-55.250" y="375.000"/>
        <point x="-124.000" y="375.000" type="curve" smooth="yes"/>
        <point x="125.000" y="375.000" type="line"/>
        <point x="56.250" y="375.000"/>

        <point x="0.000" y="431.250"/>
        <point x="0.000" y="500.000" type="curve" smooth="yes"/>
        <point x="0.000" y="500.000" type="line"/>
    </contour>
  </outline>
</glyph>
<glyph name="_25.clip" format="2">
  <advance width="1"/>
  
  <outline>
    <contour>
        <point x="0.000" y="193.750"/>

        <point x="56.250" y="250.000"/>
        <point x="125.000" y="250.000" type="curve" smooth="yes"/>
        <point x="-124.000" y="250.000" type="line"/>
        <point x="-55.250" y="250.000"/>

        <point x="1.000" y="193.750"/>
        <point x="1.000" y="125.000" type="curve" smooth="yes"/>
        <point x="1.000" y="125.000" type="line"/>
        <point x="1.000" y="56.250"/>

        <point x="-55.250" y="0.000"/>
        <point x="-124.000" y="0.000" type="curve" smooth="yes"/>
        <point x="125.000" y="0.000" type="line"/>
        <point x="56.250" y="0.000"/>

        <point x="0.000" y="56.250"/>
        <point x="0.000" y="125.000" type="curve" smooth="yes"/>
        <point x="0.000" y="125.000" type="line"/>
    </contour>
  </outline>
</glyph>
<glyph name="_34.clip.center" format="2">
  <advance width="1"/>
  
  <outline>
    <contour>
        <point x="0.000" y="593.500"/>

        <point x="76.500" y="670.000"/>
        <point x="170.000" y="670.000" type="curve" smooth="yes"/>
        <point x="-169.000" y="670.000" type="line"/>
        <point x="-75.500" y="670.000"/>

        <point x="1.000" y="593.500"/>
        <point x="1.000" y="500.000" type="curve" smooth="yes"/>
        <point x="1.000" y="500.000" type="line"/>
        <point x="1.000" y="406.500"/>

        <point x="-75.500" y="330.000"/>
        <point x="-169.000" y="330.000" type="curve" smooth="yes"/>
        <point x="170.000" y="330.000" type="line"/>
        <point x="76.500" y="330.000"/>

        <point x="0.000" y="406.500"/>
        <point x="0.000" y="500.000" type="curve" smooth="yes"/>
        <point x="0.000" y="500.000" type="line"/>
    </contour>
  </outline>
</glyph>
<glyph name="_35.clip.center" format="2">
  <advance width="1"/>
  
  <outline>
    <contour>
        <point x="0.000" y="596.250"/>

        <point x="78.750" y="675.000"/>
        <point x="175.000" y="675.000" type="curve" smooth="yes"/>
        <point x="-174.000" y="675.000" type="line"/>
        <point x="-77.750" y="675.000"/>

        <point x="1.000" y="596.250"/>
        <point x="1.000" y="500.000" type="curve" smooth="yes"/>
        <point x="1.000" y="500.000" type="line"/>
        <point x="1.000" y="403.750"/>

        <point x="-77.750" y="325.000"/>
        <point x="-174.000" y="325.000" type="curve" smooth="yes"/>
        <point x="175.000" y="325.000" type="line"/>
        <point x="78.750" y="325.000"/>

        <point x="0.000" y="403.750"/>
        <point x="0.000" y="500.000" type="curve" smooth="yes"/>
        <point x="0.000" y="500.000" type="line"/>
    </contour>
  </outline>
</glyph>
<glyph name="_36.clip.center" format="2">
  <advance width="1"/>
  
  <outline>
    <contour>
        <point x="0.000" y="599.000"/>

        <point x="81.000" y="680.000"/>
        <point x="180.000" y="680.000" type="curve" smooth="yes"/>
        <point x="-179.000" y="680.000" type="line"/>
        <point x="-80.000" y="680.000"/>

        <point x="1.000" y="599.000"/>
        <point x="1.000" y="500.000" type="curve" smooth="yes"/>
        <point x="1.000" y="500.000" type="line"/>
        <point x="1.000" y="401.000"/>

        <point x="-80.000" y="320.000"/>
        <point x="-179.000" y="320.000" type="curve" smooth="yes"/>
        <point x="180.000" y="320.000" type="line"/>
        <point x="81.000" y="320.000"/>

        <point x="0.000" y="401.000"/>
        <point x="0.000" y="500.000" type="curve" smooth="yes"/>
        <point x="0.000" y="500.000" type="line"/>
    </contour>
  </outline>
</glyph>
<glyph name="_1.clip.center" format="2">
  <advance width="1"/>
  
  <outline>
    <contour>
        <point x="0" y="502.75"/>

        <point x="2.25" y="505"/>
        <point x="5" y="505" type="curve" smooth="yes"/>
        <point x="-4" y="505" type="line"/>
        <point x="-1.25" y="505"/>

        <point x="1" y="502.75"/>
        <point x="1" y="500" type="curve" smooth="yes"/>
        <point x="1" y="500" type="line"/>
        <point x="1" y="497.25"/>

        <point x="-1.25" y="495"/>
        <point x="-4" y="495" type="curve" smooth="yes"/>
        <point x="5" y="495" type="line"/>
        <point x="2.25" y="495"/>

        <point x="0" y="497.25"/>
        <point x="0" y="500" type="curve" smooth="yes"/>
        <point x="0" y="500" type="line"/>
    </contour>
  </outline>
</glyph>
<glyph name="_1.clip" format="2">
	<advance width="1"/>
	<outline>
		<contour>
			<point x="0" y="7.75"/>
			<point x="2.25" y="10"/>
			<point x="5" y="10" type="curve" smooth="yes"/>
			<point x="-4" y="10" type="line"/>
			<point x="-1.25" y="10"/>
			<point x="1" y="7.75"/>
			<point x="1" y="5" type="curve" smooth="yes"/>
			<point x="1" y="5" type="line"/>
			<point x="1" y="2.25"/>
			<point x="-1.25" y="0"/>
			<point x="-4" y="0" type="curve" smooth="yes"/>
			<point x="5" y="0" type="line"/>
			<point x="2.25" y="0"/>
			<point x="0" y="2.25"/>
			<point x="0" y="5" type="curve" smooth="yes"/>
			<point x="0" y="5" type="line"/>
		</contour>
	</outline>
</glyph>
<glyph name="_14.clip" format="2">
	<advance width="1"/>
	<outline>
		<contour>
			<point x="0" y="108.5"/>
			<point x="31.5" y="140"/>
			<point x="70" y="140" type="curve" smooth="yes"/>
			<point x="-69" y="140" type="line"/>
			<point x="-30.5" y="140"/>
			<point x="1" y="108.5"/>
			<point x="1" y="70" type="curve" smooth="yes"/>
			<point x="1" y="70" type="line"/>
			<point x="1" y="31.5"/>
			<point x="-30.5" y="0"/>
			<point x="-69" y="0" type="curve" smooth="yes"/>
			<point x="70" y="0" type="line"/>
			<point x="31.5" y="0"/>
			<point x="0" y="31.5"/>
			<point x="0" y="70" type="curve" smooth="yes"/>
			<point x="0" y="70" type="line"/>
		</contour>
	</outline>
</glyph>
<glyph name="_17.clip.center" format="2">
  <advance width="1"/>
  
  <outline>
    <contour>
        <point x="0" y="546.75"/>

        <point x="38.24999999999999" y="585"/>
        <point x="85" y="585" type="curve" smooth="yes"/>
        <point x="-84" y="585" type="line"/>
        <point x="-37.24999999999999" y="585"/>

        <point x="1" y="546.75"/>
        <point x="1" y="500" type="curve" smooth="yes"/>
        <point x="1" y="500" type="line"/>
        <point x="1" y="453.25"/>

        <point x="-37.24999999999999" y="415"/>
        <point x="-84" y="415" type="curve" smooth="yes"/>
        <point x="85" y="415" type="line"/>
        <point x="38.24999999999999" y="415"/>

        <point x="0" y="453.25"/>
        <point x="0" y="500" type="curve" smooth="yes"/>
        <point x="0" y="500" type="line"/>
    </contour>
  </outline>
</glyph>
<glyph name="_18.clip" format="2">
  <advance width="1"/>
  
  <outline>
    <contour>
        <point x="0" y="139.5"/>

        <point x="40.49999999999999" y="180"/>
        <point x="90" y="180" type="curve" smooth="yes"/>
        <point x="-89" y="180" type="line"/>
        <point x="-39.49999999999999" y="180"/>

        <point x="1" y="139.5"/>
        <point x="1" y="90" type="curve" smooth="yes"/>
        <point x="1" y="90" type="line"/>
        <point x="1" y="40.49999999999999"/>

        <point x="-39.49999999999999" y="0"/>
        <point x="-89" y="0" type="curve" smooth="yes"/>
        <point x="90" y="0" type="line"/>
        <point x="40.49999999999999" y="0"/>

        <point x="0" y="40.49999999999999"/>
        <point x="0" y="90" type="curve" smooth="yes"/>
        <point x="0" y="90" type="line"/>
    </contour>
  </outline>
</glyph>
<glyph name="_19.clip.center" format="2">
  <advance width="1"/>
  
  <outline>
    <contour>
        <point x="0" y="552.25"/>

        <point x="42.74999999999999" y="595"/>
        <point x="95" y="595" type="curve" smooth="yes"/>
        <point x="-94" y="595" type="line"/>
        <point x="-41.74999999999999" y="595"/>

        <point x="1" y="552.25"/>
        <point x="1" y="500" type="curve" smooth="yes"/>
        <point x="1" y="500" type="line"/>
        <point x="1" y="447.75"/>

        <point x="-41.74999999999999" y="405"/>
        <point x="-94" y="405" type="curve" smooth="yes"/>
        <point x="95" y="405" type="line"/>
        <point x="42.74999999999999" y="405"/>

        <point x="0" y="447.75"/>
        <point x="0" y="500" type="curve" smooth="yes"/>
        <point x="0" y="500" type="line"/>
    </contour>
  </outline>
</glyph>
<glyph name="_2.clip" format="2">
  <advance width="1"/>
  
  <outline>
    <contour>
        <point x="0" y="15.5"/>

        <point x="4.5" y="20"/>
        <point x="10" y="20" type="curve" smooth="yes"/>
        <point x="-9" y="20" type="line"/>
        <point x="-3.5" y="20"/>

        <point x="1" y="15.5"/>
        <point x="1" y="10" type="curve" smooth="yes"/>
        <point x="1" y="10" type="line"/>
        <point x="1" y="4.5"/>

        <point x="-3.5" y="0"/>
        <point x="-9" y="0" type="curve" smooth="yes"/>
        <point x="10" y="0" type="line"/>
        <point x="4.5" y="0"/>

        <point x="0" y="4.5"/>
        <point x="0" y="10" type="curve" smooth="yes"/>
        <point x="0" y="10" type="line"/>
    </contour>
  </outline>
</glyph>
<glyph name="_20.clip.center" format="2">
	<advance width="1"/>
	<outline>
		<contour>
			<point x="0" y="555"/>
			<point x="44" y="600"/>
			<point x="100" y="600" type="curve" smooth="yes"/>
			<point x="-99" y="600" type="line"/>
			<point x="-43" y="600"/>
			<point x="1" y="555"/>
			<point x="1" y="500" type="curve" smooth="yes"/>
			<point x="1" y="500" type="line"/>
			<point x="1" y="445"/>
			<point x="-43" y="400"/>
			<point x="-99" y="400" type="curve" smooth="yes"/>
			<point x="100" y="400" type="line"/>
			<point x="44" y="400"/>
			<point x="0" y="445"/>
			<point x="0" y="500" type="curve" smooth="yes"/>
			<point x="0" y="500" type="line"/>
		</contour>
	</outline>
</glyph>
<glyph name="_21.clip" format="2">
	<advance width="1"/>
	<outline>
		<contour>
			<point x="0" y="162.75"/>
			<point x="47.25" y="210"/>
			<point x="105" y="210" type="curve" smooth="yes"/>
			<point x="-104" y="210" type="line"/>
			<point x="-46.25" y="210"/>
			<point x="1" y="162.75"/>
			<point x="1" y="105" type="curve" smooth="yes"/>
			<point x="1" y="105" type="line"/>
			<point x="1" y="47.25"/>
			<point x="-46.25" y="0"/>
			<point x="-104" y="0" type="curve" smooth="yes"/>
			<point x="105" y="0" type="line"/>
			<point x="47.25" y="0"/>
			<point x="0" y="47.25"/>
			<point x="0" y="105" type="curve" smooth="yes"/>
			<point x="0" y="105" type="line"/>
		</contour>
	</outline>
</glyph>
<glyph name="_26.clip.center" format="2">
	<advance width="1"/>
	<outline>
		<contour>
			<point x="0" y="571.5"/>
			<point x="58.5" y="630"/>
			<point x="130" y="630" type="curve" smooth="yes"/>
			<point x="-129" y="630" type="line"/>
			<point x="-57.5" y="630"/>
			<point x="1" y="571.5"/>
			<point x="1" y="500" type="curve" smooth="yes"/>
			<point x="1" y="500" type="line"/>
			<point x="1" y="428.5"/>
			<point x="-57.5" y="370"/>
			<point x="-129" y="370" type="curve" smooth="yes"/>
			<point x="130" y="370" type="line"/>
			<point x="58.5" y="370"/>
			<point x="0" y="428.5"/>
			<point x="0" y="500" type="curve" smooth="yes"/>
			<point x="0" y="500" type="line"/>
		</contour>
	</outline>
</glyph>
<glyph name="_27.clip.center" format="2">
  <advance width="1"/>
  
  <outline>
    <contour>
        <point x="0" y="574.25"/>

        <point x="60.74999999999999" y="635"/>
        <point x="135" y="635" type="curve" smooth="yes"/>
        <point x="-134" y="635" type="line"/>
        <point x="-59.74999999999999" y="635"/>

        <point x="1" y="574.25"/>
        <point x="1" y="500" type="curve" smooth="yes"/>
        <point x="1" y="500" type="line"/>
        <point x="1" y="425.75"/>

        <point x="-59.74999999999999" y="365"/>
        <point x="-134" y="365" type="curve" smooth="yes"/>
        <point x="135" y="365" type="line"/>
        <point x="60.74999999999999" y="365"/>

        <point x="0" y="425.75"/>
        <point x="0" y="500" type="curve" smooth="yes"/>
        <point x="0" y="500" type="line"/>
    </contour>
  </outline>
</glyph>
<glyph name="_27.clip" format="2">
  <advance width="1"/>
  
  <outline>
    <contour>
        <point x="0.000" y="209.250"/>

        <point x="60.750" y="270.000"/>
        <point x="135.000" y="270.000" type="curve" smooth="yes"/>
        <point x="-134.000" y="270.000" type="line"/>
        <point x="-59.750" y="270.000"/>

        <point x="1.000" y="209.250"/>
        <point x="1.000" y="135.000" type="curve" smooth="yes"/>
        <point x="1.000" y="135.000" type="line"/>
        <point x="1.000" y="60.750"/>

        <point x="-59.750" y="0.000"/>
        <point x="-134.000" y="0.000" type="curve" smooth="yes"/>
        <point x="135.000" y="0.000" type="line"/>
        <point x="60.750" y="0.000"/>

        <point x="0.000" y="60.750"/>
        <point x="0.000" y="135.000" type="curve" smooth="yes"/>
        <point x="0.000" y="135.000" type="line"/>
    </contour>
  </outline>
</glyph>
<glyph name="_3.clip" format="2">
  <advance width="1"/>
  
  <outline>
    <contour>
        <point x="0" y="23.25"/>

        <point x="6.749999999999999" y="30"/>
        <point x="15" y="30" type="curve" smooth="yes"/>
        <point x="-14" y="30" type="line"/>
        <point x="-5.749999999999999" y="30"/>

        <point x="1" y="23.25"/>
        <point x="1" y="15" type="curve" smooth="yes"/>
        <point x="1" y="15" type="line"/>
        <point x="1" y="6.749999999999999"/>

        <point x="-5.749999999999999" y="0"/>
        <point x="-14" y="0" type="curve" smooth="yes"/>
        <point x="15" y="0" type="line"/>
        <point x="6.749999999999999" y="0"/>

        <point x="0" y="6.749999999999999"/>
        <point x="0" y="15" type="curve" smooth="yes"/>
        <point x="0" y="15" type="line"/>
    </contour>
  </outline>
</glyph>
<glyph name="_32.clip.center" format="2">
  <advance width="1"/>
  
  <outline>
    <contour>
        <point x="0" y="588"/>

        <point x="72" y="660"/>
        <point x="160" y="660" type="curve" smooth="yes"/>
        <point x="-159" y="660" type="line"/>
        <point x="-71" y="660"/>

        <point x="1" y="588"/>
        <point x="1" y="500" type="curve" smooth="yes"/>
        <point x="1" y="500" type="line"/>
        <point x="1" y="412"/>

        <point x="-71" y="340"/>
        <point x="-159" y="340" type="curve" smooth="yes"/>
        <point x="160" y="340" type="line"/>
        <point x="72" y="340"/>

        <point x="0" y="412"/>
        <point x="0" y="500" type="curve" smooth="yes"/>
        <point x="0" y="500" type="line"/>
    </contour>
  </outline>
</glyph>
<glyph name="_34.clip" format="2">
	<advance width="1"/>
	<outline>
		<contour>
			<point x="0" y="263.5"/>
			<point x="76.5" y="340"/>
			<point x="170" y="340" type="curve" smooth="yes"/>
			<point x="-169" y="340" type="line"/>
			<point x="-75.5" y="340"/>
			<point x="1" y="263.5"/>
			<point x="1" y="170" type="curve" smooth="yes"/>
			<point x="1" y="170" type="line"/>
			<point x="1" y="76.5"/>
			<point x="-75.5" y="0"/>
			<point x="-169" y="0" type="curve" smooth="yes"/>
			<point x="170" y="0" type="line"/>
			<point x="76.5" y="0"/>
			<point x="0" y="76.5"/>
			<point x="0" y="170" type="curve" smooth="yes"/>
			<point x="0" y="170" type="line"/>
		</contour>
	</outline>
</glyph>
<glyph name="_37.clip.center" format="2">
	<advance width="1"/>
	<outline>
		<contour>
			<point x="0" y="601.75"/>
			<point x="83.25" y="685"/>
			<point x="185" y="685" type="curve" smooth="yes"/>
			<point x="-184" y="685" type="line"/>
			<point x="-82.25" y="685"/>
			<point x="1" y="601.75"/>
			<point x="1" y="500" type="curve" smooth="yes"/>
			<point x="1" y="500" type="line"/>
			<point x="1" y="398.25"/>
			<point x="-82.25" y="315"/>
			<point x="-184" y="315" type="curve" smooth="yes"/>
			<point x="185" y="315" type="line"/>
			<point x="83.25" y="315"/>
			<point x="0" y="398.25"/>
			<point x="0" y="500" type="curve" smooth="yes"/>
			<point x="0" y="500" type="line"/>
		</contour>
	</outline>
</glyph>
<glyph name="_38.clip" format="2">
	<advance width="1"/>
	<outline>
		<contour>
			<point x="0" y="294.5"/>
			<point x="85.5" y="380"/>
			<point x="190" y="380" type="curve" smooth="yes"/>
			<point x="-189" y="380" type="line"/>
			<point x="-84.5" y="380"/>
			<point x="1" y="294.5"/>
			<point x="1" y="190" type="curve" smooth="yes"/>
			<point x="1" y="190" type="line"/>
			<point x="1" y="85.5"/>
			<point x="-84.5" y="0"/>
			<point x="-189" y="0" type="curve" smooth="yes"/>
			<point x="190" y="0" type="line"/>
			<point x="85.5" y="0"/>
			<point x="0" y="85.5"/>
			<point x="0" y="190" type="curve" smooth="yes"/>
			<point x="0" y="190" type="line"/>
		</contour>
	</outline>
</glyph>
<glyph name="_39.clip.center" format="2">
  <advance width="1"/>
  
  <outline>
    <contour>
        <point x="0" y="607.25"/>

        <point x="87.74999999999999" y="695"/>
        <point x="195" y="695" type="curve" smooth="yes"/>
        <point x="-194" y="695" type="line"/>
        <point x="-86.74999999999999" y="695"/>

        <point x="1" y="607.25"/>
        <point x="1" y="500" type="curve" smooth="yes"/>
        <point x="1" y="500" type="line"/>
        <point x="1" y="392.75"/>

        <point x="-86.74999999999999" y="305"/>
        <point x="-194" y="305" type="curve" smooth="yes"/>
        <point x="195" y="305" type="line"/>
        <point x="87.74999999999999" y="305"/>

        <point x="0" y="392.75"/>
        <point x="0" y="500" type="curve" smooth="yes"/>
        <point x="0" y="500" type="line"/>
    </contour>
  </outline>
</glyph>
<glyph name="_6.clip.center" format="2">
	<advance width="1"/>
	<outline>
		<contour>
			<point x="0" y="516.5"/>
			<point x="13.5" y="530"/>
			<point x="30" y="530" type="curve" smooth="yes"/>
			<point x="-29" y="530" type="line"/>
			<point x="-12.5" y="530"/>
			<point x="1" y="516.5"/>
			<point x="1" y="500" type="curve" smooth="yes"/>
			<point x="1" y="500" type="line"/>
			<point x="1" y="483.5"/>
			<point x="-12.5" y="470"/>
			<point x="-29" y="470" type="curve" smooth="yes"/>
			<point x="30" y="470" type="line"/>
			<point x="13.5" y="470"/>
			<point x="0" y="483.5"/>
			<point x="0" y="500" type="curve" smooth="yes"/>
			<point x="0" y="500" type="line"/>
		</contour>
	</outline>
</glyph>
<glyph name="_7.clip.center" format="2">
  <advance width="1"/>
  
  <outline>
    <contour>
        <point x="0" y="519.25"/>

        <point x="15.749999999999998" y="535"/>
        <point x="35" y="535" type="curve" smooth="yes"/>
        <point x="-34" y="535" type="line"/>
        <point x="-14.749999999999998" y="535"/>

        <point x="1" y="519.25"/>
        <point x="1" y="500" type="curve" smooth="yes"/>
        <point x="1" y="500" type="line"/>
        <point x="1" y="480.75"/>

        <point x="-14.749999999999998" y="465"/>
        <point x="-34" y="465" type="curve" smooth="yes"/>
        <point x="35" y="465" type="line"/>
        <point x="15.749999999999998" y="465"/>

        <point x="0" y="480.75"/>
        <point x="0" y="500" type="curve" smooth="yes"/>
        <point x="0" y="500" type="line"/>
    </contour>
  </outline>
</glyph>
<glyph name="_7.clip" format="2">
  <advance width="1"/>
  
  <outline>
    <contour>
        <point x="0" y="54.25"/>

        <point x="15.749999999999998" y="70"/>
        <point x="35" y="70" type="curve" smooth="yes"/>
        <point x="-34" y="70" type="line"/>
        <point x="-14.749999999999998" y="70"/>

        <point x="1" y="54.25"/>
        <point x="1" y="35" type="curve" smooth="yes"/>
        <point x="1" y="35" type="line"/>
        <point x="1" y="15.749999999999998"/>

        <point x="-14.749999999999998" y="0"/>
        <point x="-34" y="0" type="curve" smooth="yes"/>
        <point x="35" y="0" type="line"/>
        <point x="15.749999999999998" y="0"/>

        <point x="0" y="15.749999999999998"/>
        <point x="0" y="35" type="curve" smooth="yes"/>
        <point x="0" y="35" type="line"/>
    </contour>
  </outline>
</glyph>
